<?xml version="1.0" standalone="no"?>
<!DOCTYPE svg PUBLIC "-//W3C//DTD SVG 20010904//EN"
 "http://www.w3.org/TR/2001/REC-SVG-20010904/DTD/svg10.dtd">
<svg version="1.0" xmlns="http://www.w3.org/2000/svg"
 width="1099.000000pt" height="1099.000000pt" viewBox="0 0 1099.000000 1099.000000"
 preserveAspectRatio="xMidYMid meet">

<g transform="translate(0.000000,1099.000000) scale(0.100000,-0.100000)"
fill="#000000" stroke="none">
<path d="M6590 7578 c0 -398 6 -462 51 -549 52 -102 117 -156 232 -191 126
-38 341 -13 408 48 15 13 19 31 19 76 l0 59 -33 -25 c-72 -55 -124 -71 -237
-71 -128 1 -189 23 -250 92 -69 79 -73 102 -78 421 l-3 282 290 0 291 0 0 50
0 50 -290 0 -289 0 -3 63 -3 62 -52 3 -53 3 0 -373z"/>
<path d="M3734 7840 c-106 -15 -202 -61 -273 -130 l-41 -40 0 75 0 75 -55 0
-55 0 0 -490 0 -490 55 0 55 0 0 338 c0 319 1 339 20 370 33 54 111 122 180
155 61 30 72 32 175 32 100 0 115 -2 161 -27 98 -52 155 -133 174 -249 5 -35
10 -189 10 -341 l0 -278 50 0 50 0 0 310 c0 192 -4 329 -11 362 -26 118 -95
222 -183 273 -79 46 -213 69 -312 55z"/>
<path d="M4835 7840 c-120 -17 -203 -59 -283 -144 -89 -94 -132 -215 -132
-369 0 -146 46 -263 141 -358 159 -159 419 -195 646 -89 35 16 79 41 98 56 34
25 35 29 35 90 0 35 -3 64 -6 64 -3 0 -29 -21 -57 -46 -144 -129 -364 -161
-531 -77 -103 52 -185 159 -205 268 l-8 45 431 2 431 3 -2 82 c-6 303 -255
514 -558 473z m227 -127 c58 -26 129 -91 162 -148 22 -36 56 -139 56 -167 0
-4 -168 -8 -374 -8 l-373 0 8 47 c26 140 118 246 252 289 63 21 210 13 269
-13z"/>
<path d="M5480 7816 c0 -3 90 -109 200 -237 110 -128 200 -235 200 -239 0 -4
-89 -110 -197 -237 -109 -126 -204 -237 -212 -246 -12 -16 -8 -17 55 -17 l69
0 175 210 c96 115 177 210 180 210 3 0 87 -94 185 -210 l180 -209 68 -1 c37 0
67 2 67 5 0 3 -95 116 -211 251 l-212 245 20 22 c18 20 345 397 381 440 14 16
11 17 -54 17 l-69 0 -169 -200 c-93 -110 -172 -200 -175 -199 -3 0 -82 90
-176 200 l-170 199 -67 0 c-38 0 -68 -2 -68 -4z"/>
<path d="M2170 6340 l0 -50 3225 0 3225 0 0 50 0 50 -3225 0 -3225 0 0 -50z"/>
<path d="M6845 5898 c-3 -7 -4 -305 -3 -663 l3 -650 118 -3 117 -3 -2 663 -3
663 -113 3 c-84 2 -114 -1 -117 -10z"/>
<path d="M3450 5240 l0 -661 118 3 117 3 5 307 5 307 40 41 c57 58 108 80 189
80 73 0 107 -13 147 -57 54 -57 54 -57 57 -380 l3 -303 120 0 120 0 -3 338
c-3 323 -4 339 -26 393 -94 235 -408 313 -617 153 l-35 -26 0 231 0 231 -120
0 -120 0 0 -660z"/>
<path d="M738 5729 c-15 -8 -18 -25 -18 -104 l0 -94 -82 -3 -83 -3 0 -105 0
-105 81 -3 82 -3 5 -222 c5 -230 12 -280 55 -363 79 -155 311 -215 500 -129
l52 24 0 110 0 110 -57 -27 c-77 -36 -195 -39 -240 -6 -57 42 -63 68 -63 296
l0 208 168 2 167 3 3 108 3 107 -170 0 -170 0 -3 103 -3 102 -105 2 c-59 2
-113 -2 -122 -8z"/>
<path d="M1770 5536 c-84 -24 -140 -55 -201 -112 -105 -101 -153 -214 -152
-364 0 -246 165 -443 415 -496 139 -30 361 17 441 94 26 25 27 29 27 134 0 59
-3 108 -6 108 -3 0 -20 -11 -37 -24 -53 -41 -161 -86 -230 -98 -135 -22 -280
29 -338 119 -55 88 -77 83 322 83 l351 0 -7 78 c-15 179 -46 263 -130 351 -88
93 -207 141 -340 140 -38 0 -90 -6 -115 -13z m246 -232 c46 -28 74 -64 89
-111 l6 -23 -220 0 c-208 0 -221 1 -221 19 0 23 38 79 71 103 76 57 195 62
275 12z"/>
<path d="M2840 5535 c-196 -55 -338 -213 -371 -413 -39 -238 126 -482 372
-547 114 -31 274 -13 381 41 l48 24 0 115 c0 63 -2 115 -4 115 -2 0 -43 -19
-90 -41 -144 -69 -262 -66 -361 9 -70 53 -105 124 -105 211 0 250 282 361 513
202 l47 -32 0 119 c0 140 2 136 -110 177 -95 34 -237 43 -320 20z"/>
<path d="M5000 5532 c-30 -10 -81 -33 -112 -51 l-58 -33 0 36 0 36 -120 0
-120 0 0 -470 0 -471 118 3 117 3 3 301 2 301 34 39 c52 61 128 98 201 98 66
-1 106 -17 146 -61 54 -57 54 -57 57 -380 l3 -303 120 0 119 0 0 305 c0 322
-5 374 -47 462 -31 68 -116 145 -191 174 -79 30 -199 35 -272 11z"/>
<path d="M6090 5543 c-41 -7 -122 -34 -165 -56 -51 -25 -147 -117 -184 -176
-88 -139 -94 -346 -14 -494 131 -240 434 -328 688 -200 64 33 165 135 199 201
78 153 73 345 -12 491 -97 166 -318 267 -512 234z m175 -240 c108 -36 172
-144 163 -272 -6 -79 -32 -135 -84 -181 -53 -46 -99 -63 -174 -64 -199 -1
-321 208 -229 392 59 120 191 171 324 125z"/>
<path d="M7655 5540 c-109 -23 -194 -71 -273 -154 -199 -210 -167 -557 68
-730 89 -66 156 -88 276 -94 154 -6 260 31 367 128 182 166 214 433 75 640
-108 162 -321 249 -513 210z m186 -235 c185 -63 231 -322 82 -456 -50 -46
-101 -63 -178 -63 -99 1 -176 49 -223 139 -22 42 -27 63 -27 130 0 88 14 125
69 183 70 75 177 101 277 67z"/>
<path d="M8711 5534 c-80 -21 -144 -60 -205 -124 -146 -153 -178 -379 -80
-572 35 -70 136 -168 204 -200 148 -70 284 -58 439 38 l44 27 -5 -60 c-15
-159 -131 -240 -332 -231 -100 4 -170 30 -277 102 l-54 36 -3 -121 c-3 -136
-2 -138 68 -174 181 -92 407 -99 576 -19 67 31 165 121 201 182 60 102 63 132
63 639 l0 463 -120 0 -120 0 0 -40 c0 -22 -3 -40 -6 -40 -3 0 -20 11 -37 24
-105 78 -233 103 -356 70z m255 -229 c54 -22 112 -73 134 -116 14 -27 20 -58
20 -106 0 -125 -31 -183 -123 -230 -132 -66 -283 -26 -354 95 -24 40 -28 58
-28 122 0 64 4 82 28 122 31 53 80 97 129 115 47 16 152 16 194 -2z"/>
<path d="M9470 5516 c0 -7 90 -210 200 -450 110 -240 200 -443 200 -451 0 -9
-38 -102 -85 -207 -47 -106 -85 -196 -85 -200 0 -14 236 -10 247 5 11 13 583
1301 583 1311 0 3 -52 6 -115 6 -97 0 -118 -3 -133 -18 -10 -10 -76 -149 -147
-310 -71 -160 -133 -288 -137 -284 -7 7 -111 237 -231 512 -22 49 -41 79 -58
87 -35 18 -239 18 -239 -1z"/>
</g>
</svg>
